<svg xmlns="http://www.w3.org/2000/svg" viewBox="0 0 1200 760"><defs><linearGradient id="g" x1="0" y1="0" x2="1" y2="1"><stop stop-color="#07131f"/><stop offset="1" stop-color="#0b2438"/></linearGradient><linearGradient id="b" x1="0" y1="0" x2="1" y2="0"><stop stop-color="#0b8fe8"/><stop offset="1" stop-color="#39c4ff"/></linearGradient></defs><rect width="1200" height="760" rx="28" fill="#07090c"/><rect x="34" y="34" width="1132" height="692" rx="20" fill="url(#g)" stroke="#243746"/><rect x="34" y="34" width="1132" height="74" rx="20" fill="#0b1117"/><circle cx="76" cy="71" r="10" fill="#168fe5"/><text x="100" y="79" fill="white" font-family="Arial" font-size="24" font-weight="700">DB SECURITY</text><text x="900" y="77" fill="#9aa8b5" font-family="Arial" font-size="15">Services   About   Contact</text><rect x="78" y="151" width="500" height="290" rx="18" fill="#0b141c" stroke="#284252"/><text x="112" y="208" fill="#39b9ff" font-family="Arial" font-size="15" font-weight="700">PROFESSIONAL SECURITY</text><text x="112" y="257" fill="white" font-family="Arial" font-size="42" font-weight="800">Always alert.</text><text x="112" y="302" fill="white" font-family="Arial" font-size="42" font-weight="800">Always secure.</text><text x="112" y="345" fill="#93a3b0" font-family="Arial" font-size="17">Alarm systems, camera surveillance</text><text x="112" y="370" fill="#93a3b0" font-family="Arial" font-size="17">and smart protection for every property.</text><rect x="112" y="394" width="165" height="40" rx="8" fill="url(#b)"/><text x="143" y="420" fill="white" font-family="Arial" font-size="14" font-weight="700">GET A QUOTE</text><rect x="610" y="151" width="520" height="290" rx="18" fill="#0a1016" stroke="#284252"/><circle cx="870" cy="286" r="104" fill="#0d1c28" stroke="#168fe5" stroke-width="3"/><circle cx="870" cy="286" r="64" fill="#111e28" stroke="#39b9ff" stroke-width="2"/><path d="M820 306l35-36 25 25 50-62" fill="none" stroke="#39b9ff" stroke-width="9" stroke-linecap="round" stroke-linejoin="round"/><text x="820" y="405" fill="#aeb9c3" font-family="Arial" font-size="16">24/7 MONITORING</text><g transform="translate(78 485)"><rect width="1052" height="190" rx="18" fill="#0c1218" stroke="#263844"/><text x="34" y="50" fill="white" font-family="Arial" font-size="23" font-weight="700">Security solutions</text><rect x="34" y="76" width="300" height="82" rx="12" fill="#101b24"/><text x="55" y="110" fill="#39b9ff" font-family="Arial" font-size="15" font-weight="700">01  INTRUSION DETECTION</text><text x="55" y="136" fill="#82919d" font-family="Arial" font-size="13">Sensors · alarms · smart alerts</text><rect x="362" y="76" width="300" height="82" rx="12" fill="#101b24"/><text x="383" y="110" fill="#39b9ff" font-family="Arial" font-size="15" font-weight="700">02  CAMERA SURVEILLANCE</text><text x="383" y="136" fill="#82919d" font-family="Arial" font-size="13">Live view · recording · remote access</text><rect x="690" y="76" width="328" height="82" rx="12" fill="#101b24"/><text x="711" y="110" fill="#39b9ff" font-family="Arial" font-size="15" font-weight="700">03  ACCESS & CONTROL</text><text x="711" y="136" fill="#82919d" font-family="Arial" font-size="13">Professional protection for business</text></g></svg>