<svg xmlns="http://www.w3.org/2000/svg" viewBox="0 0 1200 760"><defs><linearGradient id="bg" x1="0" y1="0" x2="1" y2="1"><stop stop-color="#fbf4f0"/><stop offset="1" stop-color="#f4e8e1"/></linearGradient><linearGradient id="hero" x1="0" y1="0" x2="1" y2="1"><stop stop-color="#6e304f"/><stop offset=".55" stop-color="#a51d68"/><stop offset="1" stop-color="#f0a7b9"/></linearGradient><linearGradient id="photo1" x1="0" y1="0" x2="1" y2="1"><stop stop-color="#d7b9a7"/><stop offset=".5" stop-color="#8e5d61"/><stop offset="1" stop-color="#eadbd2"/></linearGradient><linearGradient id="photo2" x1="0" y1="0" x2="1" y2="1"><stop stop-color="#dce8df"/><stop offset=".5" stop-color="#b8c8bd"/><stop offset="1" stop-color="#f1e6dd"/></linearGradient><filter id="shadow"><feDropShadow dx="0" dy="14" stdDeviation="16" flood-opacity=".16"/></filter></defs><rect width="1200" height="760" rx="28" fill="#fff"/><rect x="34" y="34" width="1132" height="692" rx="20" fill="url(#bg)" stroke="#eadbd6"/><rect x="34" y="34" width="1132" height="72" rx="20" fill="#fff"/><text x="76" y="82" fill="#b01870" font-family="Georgia,serif" font-size="31" font-style="italic" font-weight="700">Sana</text><text x="136" y="83" fill="#8d6c78" font-family="Arial" font-size="11" letter-spacing="1.5">PHOTOGRAPHY</text><text x="900" y="79" fill="#8d6c78" font-family="Arial" font-size="13">Home   Portfolio   Services   Contact</text><rect x="34" y="106" width="1132" height="305" fill="url(#hero)"/><circle cx="935" cy="225" r="170" fill="#000" opacity=".08"/><circle cx="935" cy="225" r="112" fill="#fff" opacity=".08"/><path d="M790 355c35-105 96-157 157-157 62 0 123 52 158 157" fill="none" stroke="#fff" stroke-opacity=".18" stroke-width="55" stroke-linecap="round"/><text x="78" y="165" fill="#ffe9f2" font-family="Arial" font-size="13" letter-spacing="2" font-weight="700">SANA PHOTOGRAPHY</text><text x="78" y="223" fill="white" font-family="Georgia,serif" font-size="48" font-weight="700">Timeless imagery for</text><text x="78" y="276" fill="white" font-family="Georgia,serif" font-size="48" font-style="italic">life's meaningful moments.</text><text x="78" y="320" fill="#ffeef4" font-family="Arial" font-size="17">Weddings · Anniversaries · Engagements · Portraits</text><rect x="78" y="348" width="205" height="40" rx="20" fill="#b01870"/><text x="113" y="374" fill="white" font-family="Arial" font-size="12" font-weight="700" letter-spacing="1">BOOK A SESSION</text><g filter="url(#shadow)"><rect x="76" y="460" width="340" height="185" rx="12" fill="url(#photo1)"/><rect x="430" y="460" width="340" height="185" rx="12" fill="url(#photo2)"/><rect x="784" y="460" width="340" height="185" rx="12" fill="#d9c5c1"/></g><g fill="#fff" opacity=".45"><circle cx="178" cy="536" r="48"/><circle cx="305" cy="574" r="60"/><circle cx="528" cy="535" r="52"/><circle cx="675" cy="574" r="58"/><circle cx="874" cy="540" r="50"/><circle cx="1030" cy="574" r="62"/></g><g fill="#fff"><text x="100" y="505" font-family="Georgia,serif" font-size="19" font-weight="700">Weddings</text><text x="454" y="505" font-family="Georgia,serif" font-size="19" font-weight="700">Couples &amp; Portraits</text><text x="808" y="505" font-family="Georgia,serif" font-size="19" font-weight="700">Life's Stories</text></g><text x="76" y="690" fill="#9d7282" font-family="Arial" font-size="13">A warm, elegant photography experience designed around genuine moments, connection and storytelling.</text></svg>